<svg width="22" height="29" viewBox="0 0 22 29" fill="none" xmlns="http://www.w3.org/2000/svg">
<path d="M10.6942 0.0431146C10.6401 0.041343 10.5838 0.0466303 10.5258 0.061335C8.88743 0.482776 7.72062 1.98111 7.71875 3.68774C7.71876 5.42917 8.91841 6.89339 10.5322 7.31139V8.23334C9.49473 9.85027 7.16849 10.9306 4.99231 12.2937C3.88184 12.9893 2.81148 13.7719 2.00952 14.7958C1.20758 15.8198 0.6875 17.0976 0.6875 18.6887C0.6875 20.8028 1.29484 22.3343 1.96924 23.3734H20.0289C20.7039 22.3343 21.3143 20.8028 21.3143 18.6887C21.3143 17.0976 20.7906 15.8198 19.9886 14.7958C19.1867 13.7719 18.12 12.9893 17.0095 12.2937C14.8358 10.9321 12.509 9.85272 11.4697 8.23885V7.43499C13.1648 7.43322 14.6438 6.2909 15.0823 4.66186C15.3187 4.20343 14.7493 3.75511 14.3591 4.09238C13.9407 4.43526 13.4159 4.62559 12.875 4.62618C11.575 4.62618 10.5322 3.57966 10.5322 2.27969C10.5175 1.72273 10.7557 1.19347 11.0613 0.798371C11.3272 0.454705 11.0729 0.0571452 10.6942 0.0430605L10.6942 0.0431146ZM2.09193 24.311C1.32097 24.311 0.687508 24.949 0.687508 25.72V27.5913C0.687032 27.7157 0.735955 27.8351 0.823517 27.9233C0.911078 28.0116 1.03011 28.0614 1.15442 28.0619H20.8438C20.9056 28.0622 20.9669 28.0501 21.0241 28.0266C21.0813 28.003 21.1333 27.9683 21.177 27.9246C21.2208 27.8809 21.2554 27.8289 21.279 27.7717C21.3026 27.7145 21.3146 27.6532 21.3143 27.5913V25.72C21.3143 24.949 20.6772 24.311 19.9063 24.311H2.09193Z" fill="white"/>
</svg>
