<svg width="24" height="24" viewBox="0 0 24 24" fill="none" xmlns="http://www.w3.org/2000/svg">
<path fill-rule="evenodd" clip-rule="evenodd" d="M12.8101 2.01789C12.7662 2.02739 12.6832 2.05821 12.6257 2.08639L12.5212 2.13761L11.2042 3.46377L9.88715 4.78994L9.83568 4.89611C9.76337 5.04533 9.73793 5.19706 9.75974 5.34915C9.77686 5.4685 9.8114 5.56617 9.87185 5.66606C9.89719 5.70795 10.3658 6.19049 11.2038 7.0376C12.5934 8.44229 12.5493 8.40137 12.7364 8.46182C12.8514 8.499 13.0425 8.50679 13.1575 8.47899C13.3808 8.42502 13.5865 8.26136 13.6802 8.06304C13.746 7.92403 13.7627 7.84779 13.7617 7.69264C13.7609 7.58174 13.7554 7.54716 13.7242 7.45691C13.704 7.39875 13.6661 7.31798 13.64 7.27743C13.6103 7.23147 13.3654 6.97407 12.9896 6.59407C12.43 6.0281 12.3896 5.98444 12.4259 5.98444C12.4474 5.98444 12.5523 5.99561 12.6591 6.00925C14.0505 6.18706 15.3413 6.76289 16.4225 7.68808C16.6378 7.87227 17.0654 8.30679 17.2432 8.52199C17.6468 9.01055 17.9253 9.44 18.1943 9.98881C18.5984 10.8132 18.8381 11.6802 18.9117 12.584C18.943 12.9689 18.9351 13.5959 18.8941 13.9684C18.7359 15.4074 18.1762 16.7224 17.2429 17.8479C17.0128 18.1254 16.5897 18.5439 16.2827 18.7975C15.3106 19.6009 14.0791 20.1493 12.8285 20.3357C12.4241 20.396 12.2213 20.41 11.7529 20.41C11.2846 20.41 11.0818 20.396 10.6774 20.3357C9.42715 20.1493 8.19502 19.6007 7.22315 18.7975C6.9114 18.5399 6.49054 18.1229 6.2556 17.8388C5.25945 16.6341 4.69102 15.2131 4.58617 13.6652C4.56941 13.4177 4.57374 12.8354 4.59422 12.584C4.66738 11.686 4.90656 10.8172 5.30535 10.0012C5.68017 9.23421 6.08841 8.66649 6.72757 8.0234C7.03859 7.71046 7.04577 7.7021 7.09934 7.59017C7.1669 7.44899 7.18453 7.36006 7.17763 7.1953C7.17108 7.03869 7.13326 6.92128 7.04969 6.79813C6.79111 6.41704 6.2725 6.33431 5.91327 6.61685C5.81915 6.69087 5.40983 7.09954 5.24489 7.28416C4.00217 8.6752 3.23443 10.4131 3.04393 12.2664C2.98996 12.7914 2.98537 13.4609 3.03209 13.9932C3.23949 16.3563 4.4204 18.5639 6.28277 20.0698C8.06179 21.5083 10.3168 22.1804 12.6196 21.9584C15.4453 21.6861 17.9914 20.0087 19.392 17.4967C20.0024 16.4019 20.3548 15.247 20.4818 13.9251C20.4996 13.7393 20.5068 12.8023 20.492 12.5944C20.3591 10.7315 19.6829 9.01424 18.5203 7.58743C18.1493 7.13218 17.6811 6.66793 17.2067 6.28499C15.9403 5.26284 14.3837 4.61151 12.7609 4.42478C12.6426 4.41116 12.535 4.40002 12.5217 4.40002C12.5054 4.40002 12.6838 4.21171 13.064 3.82753C13.6209 3.26475 13.6313 3.25325 13.6815 3.14982C13.7977 2.91009 13.7973 2.66716 13.6804 2.43188C13.5221 2.1134 13.1615 1.94188 12.8101 2.01789Z" fill="#8DA05E"/>
</svg>
